<svg xmlns="http://www.w3.org/2000/svg" viewBox="0 0 1900 520"><path fill="#fedc45" d="M0-1h1900v520H0z"/><path d="M223.92 100.966a2.539 2.539 0 1 1 5.077 0 2.539 2.539 0 0 1-5.077 0M209.775 91.121a2 2 0 0 1-1.995-1.894c-.076-1.431-1.113-2.916-2.635-2.846a1.996 1.996 0 0 1-2.105-1.998 2 2 0 0 1 1.895-1.996c1.431-.075 2.925-1.104 2.845-2.635a2 2 0 0 1 1.892-2.102 2.009 2.009 0 0 1 2.102 1.892c.042.805.365 1.578.886 2.12.341.355.918.768 1.749.725a2.01 2.01 0 0 1 2.106 2 2.001 2.001 0 0 1-1.894 1.994c-1.432.076-2.927 1.105-2.846 2.634l.003.109a2.001 2.001 0 0 1-2.003 1.997zM246.785 69.283c-4.602 0-8.345-3.744-8.345-8.345s3.744-8.345 8.345-8.345c4.602 0 8.346 3.744 8.346 8.345s-3.744 8.345-8.346 8.345zm0-12.691c-2.396 0-4.345 1.949-4.345 4.345s1.949 4.345 4.345 4.345 4.346-1.949 4.346-4.345-1.949-4.345-4.346-4.345zM219.186 189.093h-22.032a2 2 0 0 1 0-4h22.032a2 2 0 0 1 0 4zM229.845 152.937h-15.932a2 2 0 0 1 0-4h15.932a2 2 0 0 1 0 4zM225.108 171.015h-39.965a2 2 0 0 1 0-4h39.965a2 2 0 0 1 0 4zM222.74 207.172h-52.749a2 2 0 0 1 0-4h52.749a2 2 0 0 1 0 4zM208.208 224.626h-17.764a2 2 0 0 1 0-4h17.764a2 2 0 0 1 0 4zM168.787 485.866a2 2 0 0 1-1.414-3.414l10.631-10.632-10.631-10.631a2 2 0 1 1 2.828-2.828l12.045 12.045a2 2 0 0 1 0 2.828l-12.045 12.046a1.99 1.99 0 0 1-1.414.586z" fill="#f4c41e"/><path d="M180.833 473.82H24.242a2 2 0 0 1 0-4h156.591a2 2 0 0 1 0 4zM96.515 458.242a2 2 0 0 1-1.414-3.414l10.631-10.631-10.631-10.632a2 2 0 1 1 2.828-2.828l12.045 12.046a2 2 0 0 1 0 2.828l-12.045 12.045c-.39.391-.903.586-1.414.586z" fill="#f4c41e"/><path d="M108.56 446.197H24.242a2 2 0 0 1 0-4h84.318a2 2 0 0 1 0 4zM353.69-1.076h-6.672C280.254 67.065 241.957 159.03 241.957 256.552c0 63.7 16.523 126.478 47.783 181.546 17.111 30.145 38.458 57.74 63.185 81.901h6.825c-25.907-24.648-48.192-53.062-65.89-84.24-30.856-54.356-47.166-116.324-47.166-179.207 0-97.855 39.061-190.046 106.996-257.628" fill="#f4c41e"/><path d="M218.006 256.553a2.37 2.37 0 0 0-4.738 0c0 54.261 10.752 106.851 31.957 156.306 16.866 39.335 39.713 75.263 68.058 107.141h6.383c-29.324-32.275-52.865-68.84-70.088-109.008-20.949-48.864-31.572-100.824-31.572-154.439" fill="#f4c41e"/><path fill="#fff" d="M1419.201 61.025v130.832h65.861V61.025z"/><path d="M1135 343v54.244c0 20.01 21.52 38.756 41.478 38.756H1346.323c19.958 0 30.677-18.747 30.677-38.756V263.191c0-20.009-10.719-34.191-30.677-34.191h-169.845c-19.958 0-41.478 14.182-41.478 34.191V324" fill="#ecfff3"/><path d="M1344.152 228.741h-171.235c-19.958 0-37.917 14.441-37.917 34.45v1.156h242.119v-1.156c0-20.009-13.009-34.45-32.967-34.45z" fill="#00a63f"/><path d="M1377.119 266.347H1135a2 2 0 0 1-2-2v-1.155c0-20.099 17.906-36.45 39.917-36.45h171.235c20.588 0 34.967 14.989 34.967 36.45v1.155a2 2 0 0 1-2 2zm-240.107-4h238.1c-.356-18.942-12.707-31.605-30.959-31.605h-171.235c-19.492-.001-35.407 14.101-35.906 31.605z" fill="#111"/><path d="M1288.105 331.998c0 12.245-6.558 23.096-17.803 28.485v17.803c0 8.654-5.274 14.242-13.834 14.242-8.559 0-14.651-5.588-14.651-14.242v-17.803c-11.245-5.388-17.803-16.239-17.803-28.485 0-17.961 14.771-32.045 32.536-32.045 17.928 0 31.555 14.084 31.555 32.045z" fill="#02c54c"/><path d="M1256.468 394.527c-9.804 0-16.65-6.679-16.65-16.242v-16.568c-11.174-5.847-17.803-16.864-17.803-29.719 0-18.772 15.492-34.045 34.535-34.045 18.815 0 33.555 14.954 33.555 34.045 0 12.854-6.629 23.872-17.803 29.719v16.568c0 9.867-6.215 16.242-15.834 16.242zm.082-92.574c-16.837 0-30.535 13.479-30.535 30.045 0 11.706 6.23 21.681 16.667 26.681a2.001 2.001 0 0 1 1.136 1.804v17.803c0 7.437 4.966 12.242 12.65 12.242 7.41 0 11.834-4.576 11.834-12.242v-17.803a2 2 0 0 1 1.136-1.804c10.437-5 16.667-14.975 16.667-26.681-.001-16.848-12.983-30.045-29.555-30.045z" fill="#111"/><path d="M1345.074 182.454c0-47.12-38.333-85.454-85.454-85.454-47.12 0-85.454 38.334-85.454 85.454v46.287h28.485v-46.287c0-31.412 25.557-56.969 56.969-56.969 31.412 0 56.969 25.557 56.969 56.969v46.14h28.485v-46.14z" fill="#00a63f"/><path fill="#fff" d="M1348.702 346.258v-15.13"/><path d="M1348.702 348.258a2 2 0 0 1-2-2v-15.13a2 2 0 0 1 4 0v15.13a2 2 0 0 1-2 2z" fill="#111"/><path fill="#fff" d="M1348.702 405.934v-47.216"/><path d="M1348.702 407.934a2 2 0 0 1-2-2v-47.215a2 2 0 0 1 4 0v47.215a2 2 0 0 1-2 2zM1202.651 230.741h-28.485a2 2 0 0 1-2-2v-46.288c0-48.222 39.231-87.454 87.454-87.454s87.454 39.231 87.454 87.454v7.107a2 2 0 0 1-4 0v-7.107c0-46.017-37.438-83.454-83.454-83.454s-83.454 37.437-83.454 83.454v44.288h24.485v-44.288c0-32.516 26.453-58.969 58.969-58.969 16.357 0 32.131 6.908 43.276 18.952a2 2 0 0 1-2.935 2.717c-10.391-11.229-25.095-17.669-40.341-17.669-30.31 0-54.969 24.659-54.969 54.969v46.288a2 2 0 0 1-2 2z" fill="#111"/><path d="M1345.074 230.594h-28.485a2 2 0 0 1-2-2l.001-46.14a54.847 54.847 0 0 0-7.381-27.488 1.999 1.999 0 0 1 .728-2.733 1.999 1.999 0 0 1 2.733.727 58.864 58.864 0 0 1 7.92 29.495l-.001 44.14h24.485v-24.572a2 2 0 0 1 4 0v26.572a2 2 0 0 1-2 1.999z" fill="#111"/><path d="M1346.323 438H1330a2 2 0 0 1 0-4h16.323c13.812 0 28.677-11.502 28.677-36.756V263.191c0-20.157-10.721-32.191-28.677-32.191h-169.845c-18.673 0-39.479 13.221-39.479 32.191V324a2 2 0 0 1-4 0v-60.809c0-21.328 22.914-36.191 43.479-36.191h169.845c20.155 0 32.677 13.868 32.677 36.191v134.053c0 10.716-2.923 20.677-8.231 28.05-5.984 8.312-14.437 12.706-24.446 12.706zM1316 438h-139.521c-21.942 0-43.479-20.188-43.479-40.756V342a2 2 0 0 1 4 0v55.244c0 18.206 19.924 36.756 39.479 36.756H1316a2 2 0 0 1 0 4z" fill="#111"/><path d="M1401.825 266.466c-.059 1.115-.907 2.081-2.022 2.022 1.115.059 2.081.907 2.022 2.022.059-1.115.907-2.081 2.022-2.022-1.115-.059-2.081-.907-2.022-2.022z" fill="#ffe883"/><path d="M1401.827 272.51a2.001 2.001 0 0 1-2.002-1.992.34.34 0 0 0-.127-.032 2 2 0 0 1 .097-3.997.34.34 0 0 0 .032-.127 2.01 2.01 0 0 1 2.102-1.893 2 2 0 0 1 1.896 1.99.341.341 0 0 0 .128.032 2 2 0 0 1-.099 3.997.336.336 0 0 0-.031.126 2 2 0 0 1-1.996 1.896z" fill="#111"/><path d="M1401.978 228c-.059 1.115-.907 2.081-2.022 2.022 1.115.059 2.081.907 2.022 2.022.059-1.115.907-2.081 2.022-2.022-1.115-.059-2.081-.907-2.022-2.022z" fill="#ffe883"/><path d="M1401.98 234.044a2 2 0 0 1-2.002-1.993.34.34 0 0 0-.127-.032 2 2 0 0 1 .097-3.997.347.347 0 0 0 .032-.128 2.006 2.006 0 0 1 2.104-1.891 2 2 0 0 1 1.894 1.99.335.335 0 0 0 .126.032 2 2 0 0 1-.096 3.997.323.323 0 0 0-.032.127 2 2 0 0 1-1.996 1.895z" fill="#111"/><circle cx="1387.393" cy="248.969" r="2.022" fill="#111"/><path d="M1371.56 199.88c-.104 1.963-1.597 3.664-3.56 3.56 1.963.104 3.664 1.597 3.56 3.56.104-1.963 1.597-3.664 3.56-3.56-1.963-.104-3.663-1.597-3.56-3.56z" fill="#ffe883"/><path d="M1371.562 209a2 2 0 0 1-1.999-2.105c.044-.843-.831-1.413-1.668-1.458a2 2 0 0 1-1.892-2.102 2.012 2.012 0 0 1 2.103-1.892c.346.017.661-.113.93-.394.31-.322.501-.787.527-1.275a2 2 0 1 1 3.995.21c-.044.843.832 1.413 1.669 1.458a2 2 0 1 1-.211 3.994c-.343-.013-.661.114-.93.394-.31.322-.503.787-.528 1.275a2.002 2.002 0 0 1-1.996 1.895z" fill="#111"/><path fill="#fff" d="M1111.453 443.395l-6.735-3.416"/><path d="M1111.451 445.396c-.304 0-.612-.069-.902-.216l-6.735-3.416a2.001 2.001 0 0 1 1.808-3.568l6.735 3.416a2.001 2.001 0 0 1-.906 3.784z" fill="#111"/><path fill="#fff" d="M1109.794 438.32l-3.416 6.735"/><path d="M1106.376 447.055a2.001 2.001 0 0 1-1.782-2.904l3.416-6.735a2 2 0 0 1 3.568 1.808l-3.416 6.735a2.002 2.002 0 0 1-1.786 1.096z" fill="#111"/><g fill="#111"><circle cx="1092.924" cy="460.881" r="1.78"/><path d="M1092.922 463.162c-.344 0-.686-.079-1.003-.235a2.264 2.264 0 0 1-1.153-1.311 2.267 2.267 0 0 1 .112-1.74 2.262 2.262 0 0 1 1.31-1.153c.575-.196 1.194-.156 1.741.112s.956.733 1.153 1.311a2.267 2.267 0 0 1-.112 1.74 2.284 2.284 0 0 1-2.048 1.276zm.003-3.561a1.268 1.268 0 0 0-1.149.715c-.151.307-.173.654-.062.978s.34.585.646.735c.308.151.653.175.978.062.323-.11.585-.34.735-.646.151-.307.173-.654.062-.978a1.27 1.27 0 0 0-1.21-.866z"/></g><g fill="#111"><circle cx="1111.951" cy="467.308" r="1.78"/><path d="M1111.949 469.589c-.345 0-.687-.079-1.004-.235a2.265 2.265 0 0 1-1.152-1.311 2.267 2.267 0 0 1 .112-1.74 2.262 2.262 0 0 1 1.31-1.153 2.288 2.288 0 0 1 2.895 1.422 2.27 2.27 0 0 1-.112 1.741 2.264 2.264 0 0 1-1.311 1.153 2.299 2.299 0 0 1-.738.123zm.001-3.562a1.268 1.268 0 0 0-1.147.715c-.151.307-.173.654-.062.978s.34.585.646.735c.307.151.653.173.978.062.323-.11.585-.34.735-.646a1.282 1.282 0 0 0-1.15-1.844z"/></g><path fill="#02c54c" d="M1419.201 75.265v99.681h65.861V75.265z"/><path fill="none" d="M1419.201 75.265h65.861v99.681h-65.861z"/><path d="M1481.394 195h-58.685c-3.041 0-5.709-2.717-5.709-5.813V64.585c0-3.027 2.614-5.585 5.709-5.585h58.819c3.018 0 5.472 2.445 5.472 5.45V93a2 2 0 0 1-4 0V64.45c0-.786-.674-1.45-1.472-1.45h-58.819c-.895 0-1.709.755-1.709 1.585v124.602c0 .881.879 1.813 1.709 1.813h58.685c.811 0 1.606-.898 1.606-1.813V104a2 2 0 0 1 4 0v85.187c0 3.151-2.567 5.813-5.606 5.813z" fill="#111"/><path d="M1485 77h-66a2 2 0 0 1 0-4h66a2 2 0 0 1 0 4zM1467 70h-30a2 2 0 0 1 0-4h30a2 2 0 0 1 0 4zM1452.052 189.407c-3.063 0-5.557-2.494-5.557-5.56s2.493-5.56 5.557-5.56 5.557 2.494 5.557 5.56-2.494 5.56-5.557 5.56zm0-7.12a1.56 1.56 0 0 0 0 3.12 1.56 1.56 0 0 0 0-3.12zM1485 85h-16a2 2 0 0 1 0-4h16a2 2 0 0 1 0 4zM1485 92h-7a2 2 0 0 1 0-4h7a2 2 0 0 1 0 4zM1484 177h-65a2 2 0 0 1 0-4h65a2 2 0 0 1 0 4z" fill="#111"/><path d="M1448.153 106h7.782c9.21 0 17.064 7.357 17.064 16.575v1.063c0 9.159-7.563 16.594-16.69 16.691-.117.001-.328.039-.422.109l-9.03 6.412c-.366.277-.858.016-.858-.444v-5.841c0-.276-.022-.506-.294-.55-7.927-1.291-13.706-8.078-13.706-16.377v-1.063c.001-9.218 6.944-16.575 16.154-16.575z" fill="#ecfff3"/><path d="M1446.545 148.968a2.542 2.542 0 0 1-2.545-2.561v-4.697c-8.192-1.988-14-9.373-14-18.071v-1.064c0-10.416 7.974-18.575 18.153-18.575h7.782c10.512 0 19.064 8.333 19.064 18.575v1.064c0 10.079-8.181 18.387-18.311 18.684l-8.673 6.159c-.42.319-.94.486-1.47.486zm1.608-40.968c-7.937 0-14.153 6.402-14.153 14.575v1.064c0 7.21 5.059 13.268 12.027 14.403.328.053 1.973.426 1.973 2.524v3.022l6.73-4.78c.557-.418 1.274-.475 1.555-.479 8.115-.086 14.715-6.676 14.715-14.691v-1.064c0-8.037-6.758-14.575-15.064-14.575h-7.783z" fill="#111"/><circle cx="1452.131" cy="123.41" r="1.987" fill="#02c54c"/><circle cx="1460.08" cy="123.41" r="1.987" fill="#02c54c"/><circle cx="1444.182" cy="123.41" r="1.987" fill="#02c54c"/><path d="M1050.583 476.819h-45.914c-1.459 0-2.642-1.104-2.642-2.465v-75.17c0-1.362 1.183-2.465 2.642-2.465h58.797c1.459 0 2.642 1.104 2.642 2.465v75.17c0 1.362-1.183 2.465-2.642 2.465h-5.616" fill="#fff"/><path d="M1010.036 403.839h47.171a.89.89 0 0 1 .89.89V460.8a.89.89 0 0 1-.89.89h-47.171a.89.89 0 0 1-.89-.89v-56.071a.89.89 0 0 1 .89-.89z" fill="#ecfff3"/><path d="M1063.465 478.819h-5.616a2 2 0 0 1 0-4h5.616c.378 0 .642-.245.642-.465v-75.171c0-.22-.264-.465-.642-.465h-58.797c-.378 0-.642.245-.642.465v75.171c0 .22.264.465.642.465h45.914a2 2 0 0 1 0 4h-45.914c-2.56 0-4.642-2.003-4.642-4.465v-75.171c0-2.462 2.082-4.465 4.642-4.465h58.797c2.56 0 4.642 2.003 4.642 4.465v75.171c-.001 2.462-2.083 4.465-4.642 4.465z" fill="#111"/><path d="M1035.333 469.591a1.85 1.85 0 1 1-3.7-.001 1.85 1.85 0 0 1 3.7.001M1057.207 463.689h-47.171a2.894 2.894 0 0 1-2.89-2.891v-56.07a2.893 2.893 0 0 1 2.89-2.89h47.171a2.893 2.893 0 0 1 2.89 2.89v56.07a2.893 2.893 0 0 1-2.89 2.891zm-46.061-4h44.95v-53.851h-44.95v53.851z" fill="#111"/><path d="M1045.482 433.42c0 1.548-.335 3.08-1.011 4.465-1.583 3.241-5.115 8.7-11.243 9.564h-.046c-6.117-.863-9.75-6.346-11.399-9.616a10.169 10.169 0 0 1-1.067-4.579v-9.838a1.41 1.41 0 0 1 1.271-1.411c1.51-.142 4.13-.574 6.55-1.887a9.535 9.535 0 0 1 9.125.024c2.425 1.332 5.05 1.786 6.558 1.941a1.414 1.414 0 0 1 1.262 1.413v2.657" fill="#00a63f"/><path d="M1033.228 449.449c-.094 0-.232-.007-.325-.02-7.037-.993-11.105-7.128-12.905-10.696a12.222 12.222 0 0 1-1.281-5.479v-9.838a3.395 3.395 0 0 1 3.085-3.401c1.235-.117 3.632-.487 5.783-1.653a11.467 11.467 0 0 1 11.041.028c2.159 1.187 4.561 1.577 5.8 1.705a3.404 3.404 0 0 1 3.057 3.402v2.656a2 2 0 0 1-4 0v-2.142c-1.854-.236-4.384-.799-6.782-2.116a7.49 7.49 0 0 0-7.209-.019c-2.395 1.299-4.921 1.841-6.774 2.062v9.314c0 1.3.295 2.572.853 3.679 1.425 2.823 4.553 7.636 9.637 8.496 5.072-.857 8.103-5.625 9.469-8.422a8.225 8.225 0 0 0 .808-3.587 2 2 0 0 1 4 0c0 1.868-.42 3.716-1.213 5.342-1.737 3.558-5.704 9.673-12.762 10.668a1.943 1.943 0 0 1-.282.021z" fill="#111"/><path d="M1027.836 435.209a2 2 0 0 1-2-2v-4.953a2 2 0 0 1 4 0v4.953a2 2 0 0 1-2 2z" fill="#111"/><path d="M1112.369 120.637c.104-1.963 1.597-3.664 3.56-3.56-1.963-.104-3.664-1.597-3.56-3.56-.104 1.963-1.597 3.664-3.56 3.56 1.963.103 3.663 1.596 3.56 3.56z" fill="#fdfd96"/><path d="M1112.371 122.637a2 2 0 0 1-1.999-2.105c.044-.843-.832-1.413-1.669-1.458a2 2 0 0 1-1.892-2.102 2.012 2.012 0 0 1 2.103-1.892c.83.046 1.414-.831 1.458-1.668a2 2 0 1 1 3.995.21c-.044.843.831 1.413 1.668 1.458a2 2 0 0 1 1.892 2.102 2.01 2.01 0 0 1-2.103 1.892 1.205 1.205 0 0 0-.93.394c-.31.322-.501.787-.527 1.275a2 2 0 0 1-1.996 1.894z" fill="#111"/><circle cx="1131.059" cy="108.716" r="1.78" fill="#111"/><circle cx="1158.649" cy="88.245" r="1.78" fill="#111"/><circle cx="1132.839" cy="134.526" r="1.78" fill="#111"/><path fill="#fff" d="M1140.957 94.367l-3.776 3.776"/><path d="M1137.181 100.144a2 2 0 0 1-1.414-3.414l3.776-3.776a2 2 0 1 1 2.828 2.828l-3.776 3.776c-.391.39-.903.586-1.414.586z" fill="#111"/><path fill="#fff" d="M1140.957 98.143l-3.776-3.776"/><path d="M1140.957 100.144a1.992 1.992 0 0 1-1.414-.586l-3.776-3.776a2 2 0 1 1 2.828-2.828l3.776 3.776a2 2 0 0 1-1.414 3.414z" fill="#111"/><path fill="#fff" d="M1034.998 342.504l-5.272-5.408"/><path d="M1034.998 344.504c-.521 0-1.04-.202-1.432-.604l-5.271-5.407a2 2 0 1 1 2.863-2.793l5.271 5.407a2 2 0 0 1-1.431 3.397z" fill="#111"/><path fill="#fff" d="M1034.956 337.088l-5.297 5.348"/><path d="M1029.658 344.436a2 2 0 0 1-1.421-3.407l5.298-5.348a2 2 0 1 1 2.842 2.814l-5.298 5.348a1.994 1.994 0 0 1-1.421.593z" fill="#111"/><g fill="#111"><circle cx="1034.956" cy="374.468" r="1.78"/><path d="M1034.956 376.748a2.281 2.281 0 0 1-2.279-2.28 2.281 2.281 0 0 1 2.279-2.279 2.281 2.281 0 0 1 2.28 2.279 2.282 2.282 0 0 1-2.28 2.28zm0-3.56a1.28 1.28 0 0 0-1.279 1.279c0 .706.574 1.28 1.279 1.28.706 0 1.28-.574 1.28-1.28 0-.704-.574-1.279-1.28-1.279z"/></g><g fill="#111"><circle cx="1018.936" cy="357.558" r="1.78"/><path d="M1018.937 359.838a2.282 2.282 0 0 1-2.28-2.28 2.281 2.281 0 0 1 2.28-2.279 2.281 2.281 0 0 1 2.279 2.279 2.283 2.283 0 0 1-2.279 2.28zm0-3.56c-.706 0-1.28.574-1.28 1.279 0 .706.574 1.28 1.28 1.28.705 0 1.279-.574 1.279-1.28 0-.704-.574-1.279-1.279-1.279z"/></g><path fill="#fff" d="M1498.416 67.308l6.814 3.255"/><path d="M1505.229 72.563c-.289 0-.583-.063-.861-.196l-6.814-3.254a2 2 0 1 1 1.725-3.61l6.814 3.254a2 2 0 0 1-.864 3.806z" fill="#111"/><path fill="#fff" d="M1500.325 72.377l3.125-6.849"/><path d="M1500.324 74.377a1.999 1.999 0 0 1-1.818-2.83l3.125-6.849a1.999 1.999 0 1 1 3.638 1.66l-3.125 6.849a1.998 1.998 0 0 1-1.82 1.17z" fill="#111"/><g fill="#111"><circle cx="1487.418" cy="37.295" r="1.78"/><path d="M1487.42 39.576a2.285 2.285 0 0 1-2.142-1.493h-.001a2.284 2.284 0 0 1 1.354-2.927 2.262 2.262 0 0 1 1.743.07c.553.255.974.711 1.184 1.282a2.282 2.282 0 0 1-2.138 3.068zm-1.204-1.839a1.28 1.28 0 1 0 2.403-.885 1.28 1.28 0 0 0-2.403.885z"/></g><g fill="#111"><circle cx="1508.292" cy="47.634" r="1.78"/><path d="M1508.295 49.914a2.285 2.285 0 0 1-2.143-1.493h-.001a2.284 2.284 0 0 1 1.353-2.927 2.269 2.269 0 0 1 1.744.07c.553.255.974.711 1.184 1.283.21.571.186 1.19-.07 1.743a2.267 2.267 0 0 1-2.067 1.324zm-1.205-1.838a1.285 1.285 0 0 0 1.644.76c.321-.118.577-.354.721-.665.143-.311.157-.658.039-.979a1.269 1.269 0 0 0-.665-.72 1.27 1.27 0 0 0-.979-.04 1.283 1.283 0 0 0-.76 1.644z"/></g><path d="M1593.882 214.568c-5.048 0-9.154-4.106-9.154-9.154 0-5.047 4.106-9.154 9.154-9.154 5.047 0 9.153 4.106 9.153 9.154 0 5.047-4.106 9.154-9.153 9.154zm0-14.308a5.16 5.16 0 0 0-5.154 5.154c0 2.842 2.312 5.154 5.154 5.154s5.153-2.312 5.153-5.154a5.159 5.159 0 0 0-5.153-5.154zM1423.594 367.747a1.908 1.908 0 1 1-3.815 0 1.908 1.908 0 0 1 3.815 0M1434.222 385.769a2 2 0 0 1-1.995-1.895c-.044-.837-.606-1.697-1.458-1.668a2 2 0 1 1-.211-3.994c.837-.044 1.713-.614 1.669-1.458a1.999 1.999 0 0 1 1.892-2.102 2.004 2.004 0 0 1 2.103 1.892c.044.836.578 1.701 1.458 1.669a2.014 2.014 0 0 1 2.105 1.999 2 2 0 0 1-1.896 1.995 2.004 2.004 0 0 0-1.273.527c-.279.269-.412.581-.394.93l.003.106a1.999 1.999 0 0 1-2.003 1.999zM1406.41 404.599c-3.732 0-6.77-3.036-6.77-6.769s3.037-6.769 6.77-6.769 6.769 3.036 6.769 6.769-3.036 6.769-6.769 6.769zm0-9.537c-1.527 0-2.77 1.242-2.77 2.769s1.242 2.769 2.77 2.769c1.526 0 2.769-1.242 2.769-2.769s-1.242-2.769-2.769-2.769zM1812.726 107.459a1.908 1.908 0 1 1 0 0M1797.781 121a2 2 0 0 1-1.983-2.28c.117-.83-.274-1.798-1.111-1.916a2 2 0 0 1-1.701-2.26 2.009 2.009 0 0 1 2.26-1.701c.481.068.976-.032 1.352-.274.326-.21.516-.492.564-.837a2.01 2.01 0 0 1 2.26-1.701 2 2 0 0 1 1.701 2.26c-.117.83.274 1.798 1.111 1.916a2 2 0 0 1 1.701 2.26 2.007 2.007 0 0 1-2.26 1.701 1.998 1.998 0 0 0-1.352.273c-.326.21-.516.492-.564.838a2 2 0 0 1-1.978 1.721zM1786.504 91.604c-.436 0-.874-.042-1.311-.127a6.722 6.722 0 0 1-4.317-2.862 6.718 6.718 0 0 1-1.029-5.078 6.723 6.723 0 0 1 2.862-4.318 6.713 6.713 0 0 1 5.077-1.03 6.777 6.777 0 0 1 5.347 7.94 6.723 6.723 0 0 1-2.862 4.319 6.725 6.725 0 0 1-3.767 1.156zm-.545-4.053a2.746 2.746 0 0 0 2.077-.421 2.755 2.755 0 0 0 1.171-1.766 2.772 2.772 0 0 0-2.187-3.249 2.748 2.748 0 0 0-2.077.421c-.613.414-1.029 1.041-1.171 1.767s.008 1.463.421 2.077 1.04 1.029 1.766 1.171zM1077.533 166.092a1.908 1.908 0 1 1 0 0M976.061 78.38a1.908 1.908 0 1 1 0 0M1088.479 181.399a2 2 0 0 1-1.983-2.28c.117-.83-.274-1.798-1.111-1.916a2 2 0 0 1-1.701-2.26 2.01 2.01 0 0 1 2.26-1.701c.481.067.976-.032 1.352-.274.326-.21.516-.492.564-.837a2.007 2.007 0 0 1 2.26-1.701 2 2 0 0 1 1.701 2.26c-.117.83.274 1.798 1.111 1.916a2 2 0 0 1 1.701 2.261 2.01 2.01 0 0 1-2.26 1.701c-.486-.068-.976.031-1.352.273-.326.21-.516.492-.564.838a2.001 2.001 0 0 1-1.978 1.72zM1077.19 152.001a6.777 6.777 0 0 1-6.646-8.065 6.723 6.723 0 0 1 2.862-4.319 6.713 6.713 0 0 1 5.077-1.03 6.778 6.778 0 0 1 5.348 7.94c-.629 3.228-3.469 5.474-6.641 5.474zm-.007-9.54c-.545 0-1.078.162-1.541.473a2.757 2.757 0 0 0-1.171 1.767 2.768 2.768 0 1 0 3.248-2.188 2.87 2.87 0 0 0-.536-.052zM1610.038 169.815a1.907 1.907 0 1 1-3.814 0 1.907 1.907 0 0 1 3.814 0M1620.666 187.837a2 2 0 0 1-1.995-1.895c-.044-.837-.625-1.711-1.459-1.668a2.006 2.006 0 0 1-2.105-1.998 2 2 0 0 1 1.896-1.996c.487-.026.952-.218 1.274-.528.279-.269.412-.581.394-.93a1.999 1.999 0 0 1 1.892-2.102c1.084-.051 2.045.788 2.103 1.892.026.488.218.953.527 1.275.27.28.592.411.93.394a2.006 2.006 0 0 1 2.106 1.998 1.999 1.999 0 0 1-1.895 1.996c-.837.044-1.712.614-1.668 1.458l.003.106a1.999 1.999 0 0 1-1.895 1.996l-.108.002zM1770.144 211.339a1.907 1.907 0 1 1-3.814 0 1.907 1.907 0 0 1 3.814 0M1781.662 226.691a2 2 0 0 1-1.995-1.895c-.044-.837-.639-1.698-1.458-1.668-1.089.048-2.045-.79-2.102-1.892a2 2 0 0 1 1.893-2.102c.487-.026.951-.218 1.273-.527.279-.269.412-.582.394-.93a1.999 1.999 0 0 1 1.892-2.102 2.012 2.012 0 0 1 2.103 1.892c.044.837.624 1.719 1.458 1.668a2.003 2.003 0 0 1 2.106 1.998 1.999 1.999 0 0 1-1.895 1.996c-.488.026-.953.218-1.275.528-.279.269-.412.581-.394.93l.003.106a1.999 1.999 0 0 1-1.895 1.996l-.108.002zM1749.4 248.19c-3.732 0-6.77-3.036-6.77-6.769s3.037-6.769 6.77-6.769 6.77 3.036 6.77 6.769-3.037 6.769-6.77 6.769zm0-9.537c-1.527 0-2.77 1.242-2.77 2.769s1.242 2.769 2.77 2.769 2.77-1.242 2.77-2.769-1.242-2.769-2.77-2.769zM1427.508 320.904h-23.678a2 2 0 0 1 0-4h23.678a2 2 0 0 1 0 4zM1436.534 307.317h-32.705a2 2 0 0 1 0-4h32.705a2 2 0 0 1 0 4zM1447.921 334.491h-44.092a2 2 0 0 1 0-4h44.092a2 2 0 0 1 0 4zM1439.463 347.608h-13.351a2 2 0 0 1 0-4h13.351a2 2 0 0 1 0 4zM1008.342 183.05a2 2 0 0 1-2-2v-23.678a2 2 0 0 1 4 0v23.678a2 2 0 0 1-2 2zM1021.928 192.077a2 2 0 0 1-2-2v-32.705a2 2 0 0 1 4 0v32.705a2 2 0 0 1-2 2zM994.755 203.463a2 2 0 0 1-2-2v-44.092a2 2 0 0 1 4 0v44.092a2 2 0 0 1-2 2zM981.638 195.005a2 2 0 0 1-2-2v-13.35a2 2 0 0 1 4 0v13.35a2 2 0 0 1-2 2zM1804.418 278.945c-7.237 0-13.125-5.888-13.125-13.125s5.888-13.125 13.125-13.125 13.125 5.888 13.125 13.125-5.888 13.125-13.125 13.125zm0-22.25c-5.031 0-9.125 4.093-9.125 9.125 0 5.031 4.094 9.125 9.125 9.125s9.125-4.094 9.125-9.125-4.094-9.125-9.125-9.125z" fill="#f4c41e"/><path d="M1804.418 269.381a3.56 3.56 0 1 0 0-7.12 3.56 3.56 0 0 0 0 7.12M1777.718 278.945a2 2 0 0 1-2-2c0-6.571-.709-13.128-2.108-19.488a2 2 0 1 1 3.906-.86 94.876 94.876 0 0 1 2.202 20.347 2 2 0 0 1-2 2.001zM1593.123 278.833a2 2 0 0 1-2-2c0-51.996 42.302-94.298 94.297-94.298 39.071 0 74.556 24.565 88.298 61.127a2 2 0 0 1-3.744 1.408c-13.159-35.011-47.139-58.535-84.554-58.535-49.79 0-90.297 40.507-90.297 90.298a2 2 0 0 1-2 2zM1107.938 352.708a2 2 0 0 1-2-2v-92.561a2 2 0 0 1 4 0v92.561a2 2 0 0 1-2 2zM1099.037 374.068a2 2 0 0 1-2-2v-40.05a2 2 0 0 1 4 0v40.05a2 2 0 0 1-2 2zM1369.601 461.29h-92.562a2 2 0 0 1 0-4h92.562a2 2 0 0 1 0 4zM1296.619 469.3h-40.05a2 2 0 0 1 0-4h40.05a2 2 0 0 1 0 4zM1465.481 52.345a2 2 0 0 1-1.414-3.414l7.486-7.486-7.486-7.486a2 2 0 1 1 2.828-2.828l8.9 8.9a2 2 0 0 1 0 2.828l-8.9 8.9a1.99 1.99 0 0 1-1.414.586z" fill="#f4c41e"/><path d="M1474.382 43.445h-42.075a2 2 0 0 1 0-4h42.075a2 2 0 0 1 0 4zM1490.246 373.925a1.908 1.908 0 1 1-3.815 0 1.908 1.908 0 0 1 3.815 0M1500.874 391.947a2 2 0 0 1-1.995-1.895c-.044-.837-.615-1.71-1.458-1.668a2 2 0 0 1-.211-3.994c.488-.026.953-.218 1.275-.528.279-.268.412-.581.394-.93a1.999 1.999 0 0 1 1.892-2.102 2.002 2.002 0 0 1 2.103 1.892c.044.836.581 1.706 1.458 1.669 1.084-.068 2.043.79 2.102 1.893l.003.106a2 2 0 0 1-1.896 1.995 2.004 2.004 0 0 0-1.273.527c-.279.269-.412.581-.394.93l.003.106a1.999 1.999 0 0 1-2.003 1.999zM1473.062 410.777c-3.732 0-6.77-3.036-6.77-6.769s3.037-6.769 6.77-6.769 6.769 3.036 6.769 6.769-3.036 6.769-6.769 6.769zm0-9.537c-1.527 0-2.77 1.242-2.77 2.769s1.242 2.769 2.77 2.769c1.526 0 2.769-1.242 2.769-2.769s-1.242-2.769-2.769-2.769zM1458.281 444.38l-.833-.003a2 2 0 0 1 .015-4h.015l.804.003c1.368 0 2.749-.027 4.103-.08 1.152-.047 2.034.816 2.077 1.919a1.998 1.998 0 0 1-1.919 2.077c-1.407.056-2.841.084-4.262.084zm-10.799-.555c-.068 0-.138-.003-.207-.011a107.12 107.12 0 0 1-5.058-.645 2.001 2.001 0 0 1 .603-3.955c1.6.244 3.236.453 4.864.621a2 2 0 0 1-.202 3.99zm24.935-.398a1.998 1.998 0 0 1-.267-3.981c1.613-.22 3.242-.481 4.839-.778a2.001 2.001 0 0 1 .73 3.934c-1.661.308-3.354.58-5.03.808-.09.011-.182.017-.272.017zm-39.694-2.212c-.162 0-.327-.02-.491-.062-1.638-.414-3.29-.874-4.909-1.368a2 2 0 1 1 1.166-3.826c1.559.476 3.148.918 4.724 1.317a2.001 2.001 0 1 1-.49 3.939zm54.357-.874a2.001 2.001 0 0 1-.553-3.923 99.73 99.73 0 0 0 4.67-1.468 2.004 2.004 0 0 1 2.539 1.248 2.002 2.002 0 0 1-1.248 2.539 105.597 105.597 0 0 1-4.854 1.524 1.97 1.97 0 0 1-.554.08zm-68.586-3.844c-.255 0-.515-.05-.765-.153a106.107 106.107 0 0 1-4.66-2.065 2 2 0 0 1 1.709-3.617 102.5 102.5 0 0 0 4.482 1.987 2 2 0 0 1-.766 3.848zm82.636-1.329a2 2 0 0 1-.826-3.822 100.29 100.29 0 0 0 4.411-2.127 2.003 2.003 0 0 1 2.692.868 2.002 2.002 0 0 1-.868 2.692c-1.508.771-3.05 1.516-4.585 2.211a1.993 1.993 0 0 1-.824.178zm13.161-7.148a2 2 0 0 1-1.082-3.685 102.802 102.802 0 0 0 4.062-2.741 1.998 1.998 0 0 1 2.788.472c.641.9.429 2.148-.472 2.788a108.37 108.37 0 0 1-4.221 2.851 1.987 1.987 0 0 1-1.075.315zm12-8.966a1.999 1.999 0 0 1-1.311-3.511 102.773 102.773 0 0 0 3.63-3.298 2.001 2.001 0 0 1 2.76 2.896 107.996 107.996 0 0 1-3.771 3.425 1.988 1.988 0 0 1-1.308.488zm10.598-10.595a2 2 0 0 1-1.511-3.309 103.504 103.504 0 0 0 3.122-3.782 2 2 0 0 1 3.146 2.471 108.733 108.733 0 0 1-3.244 3.931 2 2 0 0 1-1.513.689zm8.974-12.002a2.001 2.001 0 0 1-1.682-3.08 101.713 101.713 0 0 0 2.548-4.191 2.002 2.002 0 0 1 2.73-.737 2.001 2.001 0 0 1 .737 2.731 105.772 105.772 0 0 1-2.648 4.357 1.998 1.998 0 0 1-1.685.92zm7.16-13.171a2 2 0 0 1-1.82-2.826 101.538 101.538 0 0 0 1.917-4.518 2 2 0 0 1 3.719 1.473 104.686 104.686 0 0 1-1.993 4.697 2 2 0 0 1-1.823 1.174zM1609.102 352.708h-28.278a2 2 0 0 1 0-4h28.278c.781 0 1.441-.819 1.441-1.79v-30.044c0-.971-.646-1.76-1.441-1.76h-44.81c-.794 0-1.44.789-1.44 1.76v30.044c0 .971.659 1.79 1.44 1.79h4.783a2 2 0 0 1 0 4h-4.783c-3 0-5.44-2.598-5.44-5.79v-30.044c0-3.176 2.44-5.76 5.44-5.76h44.81c3 0 5.441 2.584 5.441 5.76v30.044c0 3.192-2.441 5.79-5.441 5.79z" fill="#f4c41e"/><path d="M1586.697 324.862c2.608 0 4.699 2.238 4.699 4.973 0 1.865-.893 3.605-2.35 4.426v2.35c0 1.318-1.104 2.35-2.35 2.35-1.245 0-2.35-1.032-2.35-2.35v-2.35c-1.624-.607-2.35-2.561-2.35-4.426.002-2.735 2.117-4.973 4.701-4.973m0-4c-4.797 0-8.699 4.025-8.699 8.973 0 2.624.858 4.9 2.35 6.456v.319c0 3.501 2.848 6.35 6.35 6.35s6.35-2.848 6.35-6.35v-.495c1.486-1.636 2.35-3.875 2.35-6.281-.002-4.946-3.904-8.972-8.701-8.972zM1598.445 315.114a2 2 0 0 1-2-2v-9.76c0-5.176-4.373-9.387-9.748-9.387s-9.748 4.211-9.748 9.387v9.76a2 2 0 0 1-4 0v-9.76c0-7.382 6.167-13.387 13.748-13.387s13.748 6.005 13.748 13.387v9.76a2 2 0 0 1-2 2zM1518.232 276.631a1.908 1.908 0 1 1-3.815 0 1.908 1.908 0 0 1 3.815 0" fill="#f4c41e"/><g><path d="M1495.594 266.445c-5.047 0-9.153-4.106-9.153-9.154 0-5.047 4.106-9.154 9.153-9.154s9.152 4.106 9.152 9.154-4.105 9.154-9.152 9.154zm0-14.308a5.159 5.159 0 0 0-5.153 5.154 5.16 5.16 0 0 0 5.153 5.154 5.159 5.159 0 0 0 5.152-5.154 5.159 5.159 0 0 0-5.152-5.154z" fill="#f4c41e"/></g><g><path d="M1472.829 276.724a2 2 0 0 1-1.995-1.895 2.018 2.018 0 0 0-.528-1.276c-.268-.278-.568-.41-.928-.393a2.012 2.012 0 0 1-2.107-2 1.999 1.999 0 0 1 1.894-1.994c.837-.045 1.713-.614 1.669-1.457a1.999 1.999 0 0 1 1.892-2.102 2.008 2.008 0 0 1 2.103 1.892c.044.837.628 1.709 1.457 1.668a2 2 0 1 1 .211 3.994c-.837.044-1.712.614-1.668 1.458l.003.106a1.999 1.999 0 0 1-2.003 1.999z" fill="#f4c41e"/></g><path d="M1698.062 166.34a1.992 1.992 0 0 1-1.414-.586l-7.486-7.485-7.485 7.485a2 2 0 1 1-2.828-2.828l8.899-8.9c.75-.75 2.078-.751 2.828 0l8.9 8.9a2 2 0 0 1-1.414 3.414zM1653.613 155.667c-.53 0-1.039-.21-1.414-.586l-8.9-8.9a2 2 0 1 1 2.828-2.828l7.486 7.485 7.485-7.485a2 2 0 1 1 2.828 2.828l-8.899 8.9a1.999 1.999 0 0 1-1.414.586z" fill="#f4c41e"/><g><path d="M1863 450.167h-45.14a2 2 0 0 1 0-4H1863a2 2 0 0 1 0 4z" fill="#f4c41e"/></g><g><path d="M1862.999 433h-23.678a2 2 0 0 1 0-4h23.678a2 2 0 0 1 0 4z" fill="#f4c41e"/></g><g><path d="M1863 467.334h-66.342a2 2 0 0 1 0-4H1863a2 2 0 0 1 0 4z" fill="#f4c41e"/></g><g><path d="M1767.69 467.334h-1.345a2 2 0 0 1 0-4h1.345a2 2 0 0 1 0 4z" fill="#f4c41e"/></g><g><path d="M1788.145 467.334h-11.712a2 2 0 0 1 0-4h11.712a2 2 0 0 1 0 4z" fill="#f4c41e"/></g><g><path d="M1863 484.501h-39.642a2 2 0 0 1 0-4H1863a2 2 0 0 1 0 4z" fill="#f4c41e"/></g><g><path d="M1813.35 484.501h-7.791a2 2 0 0 1 0-4h7.791a2 2 0 0 1 0 4z" fill="#f4c41e"/></g><path d="M1018.108 70.22a2 2 0 0 1-1.226-3.581C1041.908 47.249 1071.909 37 1103.644 37c28.066 0 55.198 8.187 78.465 23.674a2 2 0 0 1-2.216 3.33C1157.284 48.955 1130.918 41 1103.644 41c-30.839 0-59.993 9.959-84.312 28.801a1.992 1.992 0 0 1-1.224.419zM1124.406 74.884h-19.972a2 2 0 0 1 0-4h19.972a2 2 0 0 1 0 4zM1112.836 88.471h-21.135a2 2 0 0 1 0-4h21.135a2 2 0 0 1 0 4z" fill="#f4c41e"/><g><path d="M1000.56 140.681c-.091 0-.266-.006-.355-.019-11.919-1.642-18.892-11.942-21.987-17.937-1.399-2.71-2.139-5.806-2.139-8.952V96.512c0-2.332 1.763-4.252 4.102-4.467 2.345-.215 6.894-.903 11.015-3.086a19.397 19.397 0 0 1 18.278.047c4.132 2.216 8.689 2.943 11.039 3.178a4.49 4.49 0 0 1 4.066 4.47v4.662a2 2 0 0 1-4 0v-4.662c0-.252-.2-.463-.466-.489-3.23-.324-8.026-1.218-12.53-3.634a15.411 15.411 0 0 0-14.516-.036c-4.5 2.383-9.293 3.238-12.521 3.535a.497.497 0 0 0-.468.484v17.262c0 2.51.586 4.972 1.693 7.117 2.719 5.265 8.755 14.275 18.747 15.776 9.987-1.5 15.843-10.439 18.454-15.662 1.05-2.102 1.605-4.502 1.605-6.94a2 2 0 0 1 4 0c0 3.056-.701 6.074-2.027 8.729-2.983 5.967-9.772 16.224-21.719 17.869-.089.01-.181.016-.271.016z" fill="#f4c41e"/></g><g><path d="M986.978 115.694a2 2 0 0 1-2-2v-8.691a2 2 0 0 1 4 0v8.691a2 2 0 0 1-2 2z" fill="#f4c41e"/></g><path d="M1700.174 262a2 2 0 0 1-1.414-3.414l7.486-7.486-7.486-7.486a2 2 0 1 1 2.828-2.828l8.9 8.9a2 2 0 0 1 0 2.828l-8.9 8.9a1.992 1.992 0 0 1-1.414.586z" fill="#f4c41e"/><path d="M1709.074 253.1H1667a2 2 0 0 1 0-4h42.074a2 2 0 0 1 0 4z" fill="#f4c41e"/></svg>